<?xml version="1.0" standalone="no"?>
<!DOCTYPE svg PUBLIC "-//W3C//DTD SVG 20010904//EN"
 "http://www.w3.org/TR/2001/REC-SVG-20010904/DTD/svg10.dtd">
<svg version="1.0" xmlns="http://www.w3.org/2000/svg"
 width="68.000000pt" height="116.000000pt" viewBox="0 0 68.000000 116.000000"
 preserveAspectRatio="xMidYMid meet">
<metadata>
Created by potrace 1.16, written by Peter Selinger 2001-2019
</metadata>
<g transform="translate(0.000000,116.000000) scale(0.100000,-0.100000)"
fill="#000000" stroke="none">
<path d="M482 918 c-6 -7 -13 -27 -17 -43 -15 -67 -37 -124 -49 -128 -28 -11
-54 21 -61 75 -10 74 -22 100 -42 96 -24 -4 -34 -53 -21 -108 6 -26 8 -55 5
-64 -4 -10 -33 -28 -64 -42 -32 -14 -73 -40 -90 -57 -27 -25 -33 -38 -33 -74
0 -30 6 -49 21 -64 19 -19 28 -20 84 -14 59 6 64 5 70 -15 5 -17 -16 -71 -28
-70 -1 0 -33 11 -70 25 -83 29 -112 23 -122 -26 -11 -47 11 -59 108 -59 l80 0
-7 -78 c-8 -87 -2 -112 25 -112 25 0 50 40 60 98 19 96 53 89 66 -13 6 -50 12
-71 23 -73 22 -4 60 67 60 110 0 22 10 50 26 74 29 41 45 124 25 124 -6 0 -11
15 -11 33 0 18 -7 42 -15 53 -27 36 -17 90 21 105 29 10 30 29 5 58 -15 17
-18 31 -14 59 3 20 9 42 14 47 4 6 9 28 11 50 3 37 1 40 -23 43 -14 2 -31 -3
-37 -10z m-64 -290 c-2 -31 -8 -44 -20 -46 -15 -3 -18 4 -18 36 0 42 5 52 27
52 10 0 13 -11 11 -42z m-130 20 c16 -16 15 -63 -2 -77 -8 -7 -34 -11 -58 -9
-37 3 -43 6 -43 25 0 13 13 31 35 46 40 29 51 32 68 15z m112 -206 c0 -27 -4
-33 -17 -30 -22 4 -30 53 -12 74 16 20 29 1 29 -44z"/>
</g>
</svg>
