<?xml version="1.0" standalone="no"?>
<!DOCTYPE svg PUBLIC "-//W3C//DTD SVG 20010904//EN"
 "http://www.w3.org/TR/2001/REC-SVG-20010904/DTD/svg10.dtd">
<svg version="1.0" xmlns="http://www.w3.org/2000/svg"
 width="73.000000pt" height="71.000000pt" viewBox="0 0 73.000000 71.000000"
 preserveAspectRatio="xMidYMid meet">
<metadata>
Created by potrace 1.16, written by Peter Selinger 2001-2019
</metadata>
<g transform="translate(0.000000,71.000000) scale(0.100000,-0.100000)"
fill="#000000" stroke="none">
<path d="M287 505 c-31 -25 -61 -55 -67 -65 -6 -11 -16 -20 -23 -20 -7 0 -25
-13 -42 -29 -99 -95 -125 -122 -125 -132 0 -25 23 -48 65 -64 25 -10 45 -21
45 -25 0 -4 20 -17 43 -28 24 -11 51 -32 61 -46 11 -18 25 -26 46 -26 29 0 60
22 60 43 -1 27 -51 71 -101 88 -30 11 -64 30 -76 43 -20 22 -21 27 -10 50 8
13 60 65 118 116 73 64 104 97 104 113 0 39 -37 32 -98 -18z"/>
<path d="M533 511 c-61 -44 -236 -212 -253 -242 -13 -22 15 -59 44 -59 26 0
77 -32 118 -73 30 -30 50 -34 68 -12 19 23 2 53 -55 90 -86 58 -87 55 58 194
48 46 87 91 87 101 0 30 -27 30 -67 1z"/>
</g>
</svg>
