<?xml version="1.0" standalone="no"?>
<!DOCTYPE svg PUBLIC "-//W3C//DTD SVG 20010904//EN"
 "http://www.w3.org/TR/2001/REC-SVG-20010904/DTD/svg10.dtd">
<svg version="1.0" xmlns="http://www.w3.org/2000/svg"
 width="56.000000pt" height="74.000000pt" viewBox="0 0 56.000000 74.000000"
 preserveAspectRatio="xMidYMid meet">
<metadata>
Created by potrace 1.16, written by Peter Selinger 2001-2019
</metadata>
<g transform="translate(0.000000,74.000000) scale(0.100000,-0.100000)"
fill="#000000" stroke="none">
<path d="M285 546 c-11 -8 -32 -16 -47 -16 -19 0 -37 -13 -65 -47 -68 -84 -88
-151 -68 -229 10 -38 19 -52 46 -67 34 -19 36 -19 191 -2 34 4 133 48 143 65
2 4 -2 15 -9 25 -12 17 -19 18 -92 7 -44 -7 -97 -16 -120 -20 -22 -5 -50 -5
-62 -1 -19 7 -22 16 -22 71 0 61 2 64 40 96 49 40 91 50 125 28 33 -22 62 -20
75 4 29 55 -83 126 -135 86z"/>
</g>
</svg>
